<svg width="100" height="18" viewBox="0 0 100 18" fill="none" xmlns="http://www.w3.org/2000/svg">
<path d="M0 17.4545V0H7.56818C8.89773 0 10.0142 0.178977 10.9176 0.536932C11.8267 0.894886 12.5114 1.40057 12.9716 2.05398C13.4375 2.70739 13.6705 3.47727 13.6705 4.36364C13.6705 5.00568 13.5284 5.59091 13.2443 6.11932C12.9659 6.64773 12.5739 7.09091 12.0682 7.44886C11.5625 7.80114 10.9716 8.04545 10.2955 8.18182V8.35227C11.0455 8.38068 11.7273 8.57102 12.3409 8.9233C12.9545 9.26989 13.4432 9.75 13.8068 10.3636C14.1705 10.9716 14.3523 11.6875 14.3523 12.5114C14.3523 13.4659 14.1023 14.3153 13.6023 15.0597C13.108 15.804 12.4034 16.3892 11.4886 16.8153C10.5739 17.2415 9.48296 17.4545 8.21591 17.4545H0ZM4.73864 13.6705H6.95455C7.75 13.6705 8.34659 13.5227 8.74432 13.2273C9.14205 12.9261 9.34091 12.483 9.34091 11.8977C9.34091 11.4886 9.24716 11.142 9.05966 10.858C8.87216 10.5739 8.60511 10.358 8.25852 10.2102C7.91761 10.0625 7.50568 9.98864 7.02273 9.98864H4.73864V13.6705ZM4.73864 7.05682H6.68182C7.09659 7.05682 7.46307 6.99148 7.78125 6.8608C8.09943 6.73011 8.34659 6.54261 8.52273 6.2983C8.70455 6.0483 8.79545 5.74432 8.79545 5.38636C8.79545 4.84659 8.60227 4.43466 8.21591 4.15057C7.82955 3.8608 7.34091 3.71591 6.75 3.71591H4.73864V7.05682Z" fill="#230C0C"/>
<path d="M20.5653 17.4545H15.4517L21.2131 0H27.6903L33.4517 17.4545H28.3381L24.5199 4.80682H24.3835L20.5653 17.4545ZM19.6108 10.5682H29.2244V14.1136H19.6108V10.5682Z" fill="#230C0C"/>
<path d="M35.1328 17.4545V0H39.8714V7.05682H40.1101L45.3601 0H50.8828L44.9851 7.77273L51.0192 17.4545H45.3601L41.4396 10.9091L39.8714 12.9545V17.4545H35.1328Z" fill="#230C0C"/>
<path d="M52.2891 17.4545V0H64.8686V3.81818H57.0277V6.81818H64.2209V10.6364H57.0277V13.6364H64.8345V17.4545H52.2891Z" fill="#230C0C"/>
<path d="M67.2188 17.4545V0H74.7528C76.0483 0 77.1818 0.235795 78.1534 0.707386C79.125 1.17898 79.8807 1.85795 80.4205 2.74432C80.9602 3.63068 81.2301 4.69318 81.2301 5.93182C81.2301 7.18182 80.9517 8.2358 80.3949 9.09375C79.8438 9.9517 79.0682 10.5994 78.0682 11.0369C77.0739 11.4744 75.9119 11.6932 74.5824 11.6932H70.0824V8.01136H73.6278C74.1847 8.01136 74.6591 7.94318 75.0511 7.80682C75.4489 7.66477 75.7528 7.44034 75.9631 7.13352C76.179 6.8267 76.2869 6.42614 76.2869 5.93182C76.2869 5.43182 76.179 5.02557 75.9631 4.71307C75.7528 4.39489 75.4489 4.16193 75.0511 4.0142C74.6591 3.8608 74.1847 3.78409 73.6278 3.78409H71.9574V17.4545H67.2188ZM77.446 9.44318L81.8097 17.4545H76.6619L72.4006 9.44318H77.446Z" fill="#230C0C"/>
<path d="M81.7138 0H86.9979L90.407 7.09091H90.5433L93.9524 0H99.2365L92.8274 11.9659V17.4545H88.1229V11.9659L81.7138 0Z" fill="#230C0C"/>
</svg>
